<svg width="75" height="75" viewBox="0 0 75 75" fill="none" xmlns="http://www.w3.org/2000/svg">
<g filter="url(#filter0_d_778_149)">
<rect width="63" height="63" rx="31.5" transform="matrix(-1 0 0 1 69 6)" fill="white" shape-rendering="crispEdges"/>
<path d="M30.7481 24.489C30.8715 24.3439 31.0244 24.2256 31.197 24.1416C31.3697 24.0577 31.5583 24.0099 31.7508 24.0014C31.9433 23.9929 32.1356 24.0238 32.3152 24.0921C32.4949 24.1604 32.6581 24.2647 32.7943 24.3984C32.9306 24.532 33.037 24.6919 33.1067 24.8681C33.1764 25.0442 33.2079 25.2327 33.1992 25.4215C33.1905 25.6102 33.1418 25.7951 33.0562 25.9644C32.9705 26.1337 32.8499 26.2836 32.7019 26.4046L22.7335 36.1895H55.6826C56.0383 36.208 56.3732 36.3595 56.6183 36.6129C56.8634 36.8663 57 37.2022 57 37.5514C57 37.9007 56.8634 38.2366 56.6183 38.49C56.3732 38.7434 56.0383 38.8949 55.6826 38.9134H22.7335L32.7175 48.6868C32.9688 48.9448 33.109 49.2878 33.109 49.6446C33.109 50.0013 32.9688 50.3444 32.7175 50.6024C32.5894 50.7284 32.4371 50.8284 32.2695 50.8966C32.1018 50.9649 31.9221 51 31.7406 51C31.5591 51 31.3794 50.9649 31.2117 50.8966C31.0441 50.8284 30.8918 50.7284 30.7637 50.6024L18.4156 38.4958C18.2842 38.3718 18.1796 38.223 18.1082 38.0585C18.0368 37.8939 18 37.7169 18 37.538C18 37.3592 18.0368 37.1822 18.1082 37.0176C18.1796 36.853 18.2842 36.7043 18.4156 36.5802L30.7481 24.489Z" fill="black"/>
</g>
<defs>
<filter id="filter0_d_778_149" x="0" y="0" width="75" height="75" filterUnits="userSpaceOnUse" color-interpolation-filters="sRGB">
<feFlood flood-opacity="0" result="BackgroundImageFix"/>
<feColorMatrix in="SourceAlpha" type="matrix" values="0 0 0 0 0 0 0 0 0 0 0 0 0 0 0 0 0 0 127 0" result="hardAlpha"/>
<feOffset/>
<feGaussianBlur stdDeviation="3"/>
<feComposite in2="hardAlpha" operator="out"/>
<feColorMatrix type="matrix" values="0 0 0 0 0 0 0 0 0 0 0 0 0 0 0 0 0 0 0.1 0"/>
<feBlend mode="normal" in2="BackgroundImageFix" result="effect1_dropShadow_778_149"/>
<feBlend mode="normal" in="SourceGraphic" in2="effect1_dropShadow_778_149" result="shape"/>
</filter>
</defs>
</svg>
