<svg width="75" height="75" viewBox="0 0 75 75" fill="none" xmlns="http://www.w3.org/2000/svg">
<g filter="url(#filter0_d_778_199)">
<rect x="6" y="6" width="63" height="63" rx="31.5" fill="white" shape-rendering="crispEdges"/>
<path d="M44.2519 24.489C44.1285 24.3439 43.9756 24.2256 43.803 24.1416C43.6303 24.0577 43.4417 24.0099 43.2492 24.0014C43.0567 23.9929 42.8644 24.0238 42.6848 24.0921C42.5051 24.1604 42.3419 24.2647 42.2057 24.3984C42.0694 24.532 41.963 24.6919 41.8933 24.8681C41.8236 25.0442 41.7921 25.2327 41.8008 25.4215C41.8095 25.6102 41.8582 25.7951 41.9438 25.9644C42.0295 26.1337 42.1501 26.2836 42.2981 26.4046L52.2665 36.1895H19.3174C18.9617 36.208 18.6268 36.3595 18.3817 36.6129C18.1366 36.8663 18 37.2022 18 37.5514C18 37.9007 18.1366 38.2366 18.3817 38.49C18.6268 38.7434 18.9617 38.8949 19.3174 38.9134H52.2665L42.2825 48.6868C42.0312 48.9448 41.891 49.2878 41.891 49.6446C41.891 50.0013 42.0312 50.3444 42.2825 50.6024C42.4106 50.7284 42.5629 50.8284 42.7305 50.8966C42.8982 50.9649 43.0779 51 43.2594 51C43.4409 51 43.6206 50.9649 43.7883 50.8966C43.9559 50.8284 44.1082 50.7284 44.2363 50.6024L56.5844 38.4958C56.7158 38.3718 56.8204 38.223 56.8918 38.0585C56.9632 37.8939 57 37.7169 57 37.538C57 37.3592 56.9632 37.1822 56.8918 37.0176C56.8204 36.853 56.7158 36.7043 56.5844 36.5802L44.2519 24.489Z" fill="black"/>
</g>
<defs>
<filter id="filter0_d_778_199" x="0" y="0" width="75" height="75" filterUnits="userSpaceOnUse" color-interpolation-filters="sRGB">
<feFlood flood-opacity="0" result="BackgroundImageFix"/>
<feColorMatrix in="SourceAlpha" type="matrix" values="0 0 0 0 0 0 0 0 0 0 0 0 0 0 0 0 0 0 127 0" result="hardAlpha"/>
<feOffset/>
<feGaussianBlur stdDeviation="3"/>
<feComposite in2="hardAlpha" operator="out"/>
<feColorMatrix type="matrix" values="0 0 0 0 0 0 0 0 0 0 0 0 0 0 0 0 0 0 0.1 0"/>
<feBlend mode="normal" in2="BackgroundImageFix" result="effect1_dropShadow_778_199"/>
<feBlend mode="normal" in="SourceGraphic" in2="effect1_dropShadow_778_199" result="shape"/>
</filter>
</defs>
</svg>
