<svg preserveAspectRatio="xMidYMid meet" width="100%" height="100%" overflow="visible" style="display: block;" viewBox="0 0 13 14" fill="none" xmlns="http://www.w3.org/2000/svg">
<g id="Solid / favorite">
<path id="Vector" d="M11.9167 5.89167C11.9708 5.6 11.7542 5.25 11.4833 5.25L8.39583 4.78333L6.9875 1.75C6.93333 1.63333 6.87917 1.575 6.77083 1.51667C6.5 1.34167 6.175 1.45833 6.0125 1.75L4.65833 4.78333L1.57083 5.25C1.40833 5.25 1.3 5.30833 1.24583 5.425C1.02917 5.65833 1.02917 6.00833 1.24583 6.24167L3.46667 8.575L2.925 11.9C2.925 12.0167 2.925 12.1333 2.97917 12.25C3.14167 12.5417 3.46667 12.6583 3.7375 12.4833L6.5 10.9083L9.2625 12.4833C9.31667 12.5417 9.425 12.5417 9.53333 12.5417C9.5875 12.5417 9.5875 12.5417 9.64167 12.5417C9.9125 12.4833 10.1292 12.1917 10.075 11.8417L9.53333 8.51667L11.7542 6.18333C11.8625 6.125 11.9167 6.00833 11.9167 5.89167Z" fill="var(--fill-0, #FFD562)"/>
</g>
</svg>
