<svg preserveAspectRatio="xMidYMid meet" width="100%" height="100%" overflow="visible" style="display: block;" viewBox="0 0 14 14" fill="none" xmlns="http://www.w3.org/2000/svg">
<g id="Solid / favorite">
<path id="Vector" d="M12.8333 5.89167C12.8917 5.6 12.6583 5.25 12.3667 5.25L9.04167 4.78333L7.525 1.75C7.46667 1.63333 7.40833 1.575 7.29167 1.51667C7 1.34167 6.65 1.45833 6.475 1.75L5.01667 4.78333L1.69167 5.25C1.51667 5.25 1.4 5.30833 1.34167 5.425C1.10833 5.65833 1.10833 6.00833 1.34167 6.24167L3.73333 8.575L3.15 11.9C3.15 12.0167 3.15 12.1333 3.20833 12.25C3.38333 12.5417 3.73333 12.6583 4.025 12.4833L7 10.9083L9.975 12.4833C10.0333 12.5417 10.15 12.5417 10.2667 12.5417C10.325 12.5417 10.325 12.5417 10.3833 12.5417C10.675 12.4833 10.9083 12.1917 10.85 11.8417L10.2667 8.51667L12.6583 6.18333C12.775 6.125 12.8333 6.00833 12.8333 5.89167Z" fill="var(--fill-0, #FFD562)"/>
</g>
</svg>
